<?xml version="1.0" encoding="UTF-8"?>
<svg id="Capa_1" xmlns="http://www.w3.org/2000/svg" version="1.1" viewBox="0 0 796.66 233.45">
  <!-- Generator: Adobe Illustrator 29.5.1, SVG Export Plug-In . SVG Version: 2.1.0 Build 141)  -->
  <defs>
    <style>
      .st0 {
        fill: #be1d2d;
      }
    </style>
  </defs>
  <g>
    <path class="st0" d="M343.98,98.9c-30.68,0-55.64,25.78-55.64,57.47s24.96,57.47,55.64,57.47,55.64-25.78,55.64-57.47-24.96-57.47-55.64-57.47ZM343.92,200.03c-25.43,0-40.84-21.22-40.84-43.84v-.2c0-20.82,14.21-43.24,40.44-43.24s40.24,24.63,40.24,43.84-13.01,43.44-39.84,43.44Z"/>
    <path class="st0" d="M150.45,82.31v148.15h14.09V93.92h64.65v9.22h-55.43v49.02h55.43v9.22h-55.43v69.1h14.53v-56.46h40.9v56.46h14.54V82.31h-93.28ZM188.29,140.77v-25.23h40.9v25.23h-40.9Z"/>
    <path class="st0" d="M719,98.9c-30.68,0-55.64,25.78-55.64,57.47s24.96,57.47,55.64,57.47,55.64-25.78,55.64-57.47-24.96-57.47-55.64-57.47ZM718.99,200.03c-25.43,0-40.84-21.22-40.84-43.84v-.2c0-20.82,14.21-43.24,40.44-43.24s40.24,24.63,40.24,43.84-13.01,43.44-39.84,43.44Z"/>
    <path class="st0" d="M718.39,79.51c-21.74,0-42.46,8.51-57.09,23.79h-40.86v127.17h14.39v-114.92h17.01c-7.24,11.74-11.53,26.03-11.53,42.44v.2c0,38.04,31.23,75.08,77.88,75.08s78.48-35.63,78.48-76.88-32.63-76.88-78.28-76.88ZM719,223.06c-35.76,0-64.86-29.92-64.86-66.69s29.09-66.69,64.86-66.69,64.86,29.92,64.86,66.69-29.1,66.69-64.86,66.69Z"/>
    <path class="st0" d="M480.13,164.93c9.25-.72,30.75-5.14,30.75-30.73,0-29.45-28.9-31.74-37.76-31.74h-29.8v128.01h14.22v-114.92h14.01c5.21,0,11.21,1.4,15.42,4,5,3.2,8.81,9.41,8.81,17.22,0,8.21-3.8,15.22-8.41,18.22-5,3.2-13.21,4-22.82,4h-6.2l38.64,71.47h14.34l-38.58-64.96,7.4-.57Z"/>
    <path class="st0" d="M530.97,121.7c-2.14-11.46-7.62-21.54-16.97-28.78-8.21-6.4-22.62-10.61-45.85-10.61h-48.45v57.13c-7.54-33.59-37.14-59.93-76.38-59.93-35.59,0-68.44,22.81-76.29,60.74v-57.94h-14.09v148.15h14.09v-56.6c7.2,31.92,35.92,59.4,76.1,59.4s69.06-26.32,76.58-59.89v57.09h14.4V93.24h39.01c22.71,0,46.98,10.76,46.98,40.95,0,23.8-15.53,35.39-32.13,38.9l34.07,57.37h23.79V82.31h-14.86v39.39ZM343.98,223.06c-35.76,0-64.86-29.92-64.86-66.69s29.09-66.69,64.86-66.69,64.86,29.92,64.86,66.69-29.1,66.69-64.86,66.69ZM505.39,176.01c7.01-3,14.21-8.01,19.22-15.82,2.78-4.36,5.09-9.71,6.36-16.11v77.4l-25.58-45.48Z"/>
    <polygon class="st0" points="568.81 94.08 663.85 94.08 663.85 82.31 555.05 82.31 555.05 230.46 568.81 230.46 568.81 115.54 596.99 115.54 596.99 230.46 611.22 230.46 611.22 103.29 568.81 103.29 568.81 94.08"/>
  </g>
  <g>
    <path class="st0" d="M118.41,227.22c.18,3.23,2.95,5.7,6.18,5.51,3.23-.18,5.78-2.96,5.59-6.18,0,0-1.26-21.99-1.83-32.4l-.27-4.84c-.86-15.56-1.84-33.2-1.23-46.99.17-3.81.86-8.97,1.6-14.44,2.02-14.95,4.1-30.41-.69-39.85-7.35-14.47-22.44-12.27-30.4-10.37-1.91-2.07-3.86-4.25-5.93-6.6-10.35-11.8-21.84-13.35-34.18-4.58-1.19.85-2.33,1.86-3.39,3.02-11.28-1.31-20.33,5.2-24.71,12.9-.65,1.14-1.28,2.84-1.9,5.07-4.88.63-9.39,3.61-12.71,8.58-1.1,1.65-2.07,4.35-2.92,8.06-5.46,5.77-8.76,11.86-10.63,19.53-2.19,8.97-.81,17.33,4.23,25.56.24.39,23.28,37.73,53.51,56.85,0,4.15-.07,9.89-.11,14.48v1.28c-.04,2.62-.06,4.74-.06,5.8,0,3.23,2.62,5.86,5.85,5.86,2.96,0,5.38-2.2,5.77-5.05.08-.26.16-.52.16-.8,0-1.21.03-3.81.06-6.96.05-4.68.11-10.5.11-14.75,1.5.71,3,1.38,4.52,1.97.35.14.71.2,1.07.2,1.19,0,2.31-.72,2.77-1.89.59-1.53-.16-3.25-1.69-3.84-32.69-12.7-61.62-58.83-61.9-59.29-3.41-5.57-4.29-10.69-2.84-16.61.76-3.1,1.79-5.77,3.22-8.26-.26,6.38.42,12.7,2.96,16.14.58.79,1.48,1.2,2.39,1.2.61,0,1.23-.19,1.76-.58,1.32-.97,1.6-2.83.63-4.15-2.76-3.74-2.11-14.32-.86-21.49.09-.29.16-.58.16-.88.04-.21.08-.42.12-.62.32-1.57.64-2.8.9-3.65.22-.71.44-1.27.64-1.57,1.97-2.95,4.14-3.99,6.46-3.12-1.28,8.88-1.65,19.17,1.07,23.02.58.82,1.5,1.25,2.43,1.25.59,0,1.19-.18,1.71-.55,1.34-.95,1.66-2.8.71-4.14-1.87-2.64-.79-15.84.83-24.27v-.06c.44-2.11.83-3.65,1.14-4.71.23-.74.47-1.38.7-1.78.48-.85,2.05-3.32,4.79-5.12.05-.03.1-.07.15-.1.41-.26.85-.5,1.31-.72.39-.18.78-.35,1.19-.5.24-.09.49-.16.74-.24.49-.14,1-.25,1.52-.33.4-.06.82-.09,1.24-.1.26-.01.53-.02.8-.02.71.01,1.47.11,2.25.25-1.93,4.6-3.02,9.42-3.68,12.48l-.36,1.59c-1.23,5.17-.71,9.61,1.92,16.38.46,1.18,1.58,1.89,2.77,1.89.36,0,.72-.07,1.07-.2,1.53-.59,2.29-2.31,1.69-3.84-2.47-6.37-2.5-9.44-1.68-12.87l.38-1.7c1-4.58,3.34-15.29,8.57-19.01,6.28-4.46,11.32-5.44,18.49,2.74,4.83,5.5,9.02,10.03,12.83,13.86,2.56,2.57,2.38,3.15,2.01,4.4-.79,2.63-2.8,7.66-4.6,10.1-.58.78-.67,1.74-.41,2.61-.22.23-.44.45-.66.69-.5.54-1.52,1.65-3.34.13-1.02-.85-3.01-2.69-5.51-4.98.87-2.13,1.73-5.95,2.26-8.55.8.45,1.62.84,2.45,1.1.25.08.5.11.75.11,1.07,0,2.06-.69,2.39-1.76.41-1.32-.32-2.73-1.64-3.15-1.21-.38-4.31-1.76-6.94-6.42-.68-1.21-2.21-1.63-3.42-.95s-1.63,2.21-.95,3.42c.86,1.52,1.88,2.83,2.97,4.03,0,.03-.03.06-.04.1-.23,1.42-1.15,5.72-1.88,8.38-.72-.66-1.44-1.32-2.19-2-1.03-.93-2.62-.85-3.54.18-.93,1.03-.85,2.61.18,3.54,2.2,1.99,4.33,3.95,6.19,5.65,2.58,2.37,4.64,4.26,5.69,5.14,1.56,1.31,3.26,1.95,4.93,1.95,1.91,0,3.78-.85,5.33-2.54,4.51-4.93,9.62-8.65,11.38-9.68,1.2-.7,1.6-2.24.9-3.43-.7-1.2-2.23-1.59-3.43-.9-.52.31-1.22.77-2.01,1.32.32-.89.6-1.72.8-2.39,1.23-4.08-.11-6.73-2.92-9.69,1.72-.41,3.4-.75,5.01-.95.54-.06,1.08-.11,1.59-.14.32-.02.64-.03.95-.03.6,0,1.17.03,1.73.08.29.03.58.07.87.12.49.08.95.19,1.4.33.35.11.69.23,1.02.38.09.04.17.09.25.13,1.71.82,3.17,2.19,4.26,4.33.19.38.37.8.53,1.25,0,0,0,0,0,0,2.35,6.75.5,20.5-1.01,31.68-.77,5.74-1.5,11.16-1.7,15.49-.64,14.39.36,32.35,1.24,48.2l.27,4.81c.57,10.41,1.83,32.43,1.83,32.43Z"/>
    <path class="st0" d="M104.83,8.36l6,19.09,10.97,6-10.97,6-6,19.09-6-19.09-10.97-6,10.97-6,6-19.09M104.83,0c-3.65,0-6.88,2.37-7.98,5.86l-4.99,15.88-8.02,4.39c-2.68,1.47-4.35,4.28-4.35,7.34s1.67,5.87,4.35,7.34l8.02,4.39,4.99,15.88c1.1,3.48,4.33,5.86,7.98,5.86h0c3.65,0,6.88-2.37,7.98-5.86l4.99-15.88,8.02-4.39c2.68-1.47,4.35-4.28,4.35-7.34s-1.67-5.87-4.35-7.34l-8.02-4.39-4.99-15.87C111.71,2.37,108.48,0,104.83,0h0Z"/>
  </g>
</svg>